# Rhino
mtllib desert.mtl

v -5 0 5
v -3.5715641975402832 0 5
v -2.1431283950805664 0 5
v -0.71469253301620483 0 5
v 0.71374326944351196 0 5
v 2.142179012298584 0 5
v 3.5706150531768799 0 5
v 5 0 5
v -5 0 3.4857141971588135
v -3.5715641975402832 0.42225742340087891 3.5053975582122803
v -2.1431283950805664 0.26097199320793152 3.525080680847168
v -0.71469253301620483 0.072805747389793396 3.5447638034820557
v 0.71374326944351196 0.14010158181190491 3.5644469261169434
v 2.142179012298584 0.15195903182029724 3.5841300487518311
v 3.5706150531768799 0.40926769375801086 3.6038134098052979
v 5 0 3.6234965324401855
v -5 0 2.057142972946167
v -3.5715641975402832 0.1322033703327179 2.0768260955810547
v -2.1431283950805664 0.1959843635559082 2.0965092182159424
v -0.71469253301620483 0.17068523168563843 2.1161923408508301
v 0.71374326944351196 0.51235884428024292 2.1358754634857178
v 2.142179012298584 0.15534983575344086 2.1555588245391846
v 3.5706150531768799 0.095410458743572235 2.1752419471740723
v 5 0 2.19492506980896
v -5 0 0.62857145071029663
v -3.5715641975402832 0.14243960380554199 0.64825457334518433
v -2.1431283950805664 0.56964880228042603 0.6679377555847168
v -0.71469253301620483 0.20361392199993134 0.68762093782424927
v 0.71374326944351196 0.24481533467769623 0.70730412006378174
v 2.142179012298584 0.10026207566261292 0.72698730230331421
v 3.5706150531768799 0.13670384883880615 0.7466704249382019
v 5 0 0.76635360717773438
v -5 0 -0.80000001192092896
v -3.5715641975402832 0.19234859943389893 -0.78031682968139648
v -2.1431283950805664 0.16536980867385864 -0.76063364744186401
v -0.71469253301620483 0.037407290190458298 -0.74095046520233154
v 0.71374326944351196 0.030722791329026222 -0.72126734256744385
v 2.142179012298584 0.17729200422763824 -0.70158416032791138
v 3.5706150531768799 0.5936395525932312 -0.68190097808837891
v 5 0 -0.66221779584884644
v -5 0 -2.2285714149475098
v -3.5715641975402832 0.54369592666625977 -2.2088882923126221
v -2.1431283950805664 0.15534168481826782 -2.1892051696777344
v -0.71469253301620483 0.039047613739967346 -2.1695218086242676
v 0.71374326944351196 0.15619045495986938 -2.1498386859893799
v 2.142179012298584 0.19686080515384674 -2.1301555633544922
v 3.5706150531768799 0.55234616994857788 -2.1104724407196045
v 5 0 -2.0907893180847168
v -5 0 -3.6571428775787354
v -3.5715641975402832 0.1134907454252243 -3.6374640464782715
v -2.1431283950805664 0.032425928860902786 -3.6177849769592285
v -0.71469253301620483 0.11104165762662888 -3.5981061458587646
v 0.71374326944351196 0.4441666305065155 -3.5784270763397217
v 2.142179012298584 0.13829471170902252 -3.5587482452392578
v 3.5706150531768799 0.095385655760765076 -3.5390694141387939
v 5 0 -3.519390344619751
v -5 0 -5
v -3.5715641975402832 0 -5
v -2.1431283950805664 0 -5
v -0.71469253301620483 0 -5
v 0.71374326944351196 0 -5
v 2.142179012298584 0 -5
v 3.5706150531768799 0 -5
v 5 0 -5
vt 0 0
vt 0 0.1428571492433548
vt 0 0.28571429848670959
vt 0 0.4285714328289032
vt 0 0.57142859697341919
vt 0 0.71428573131561279
vt 0 0.8571428656578064
vt 0 1
vt 0.15142856538295746 0
vt 0.15142856538295746 0.1428571492433548
vt 0.15142856538295746 0.28571429848670959
vt 0.15142856538295746 0.4285714328289032
vt 0.15142856538295746 0.57142859697341919
vt 0.15142856538295746 0.71428573131561279
vt 0.15142856538295746 0.8571428656578064
vt 0.15142856538295746 1
vt 0.29428571462631226 0
vt 0.29428571462631226 0.1428571492433548
vt 0.29428571462631226 0.28571429848670959
vt 0.29428571462631226 0.4285714328289032
vt 0.29428571462631226 0.57142859697341919
vt 0.29428571462631226 0.71428573131561279
vt 0.29428571462631226 0.8571428656578064
vt 0.29428571462631226 1
vt 0.43714284896850586 0
vt 0.43714284896850586 0.1428571492433548
vt 0.43714284896850586 0.28571429848670959
vt 0.43714284896850586 0.4285714328289032
vt 0.43714284896850586 0.57142859697341919
vt 0.43714284896850586 0.71428573131561279
vt 0.43714284896850586 0.8571428656578064
vt 0.43714284896850586 1
vt 0.57999998331069946 0
vt 0.57999998331069946 0.1428571492433548
vt 0.57999998331069946 0.28571429848670959
vt 0.57999998331069946 0.4285714328289032
vt 0.57999998331069946 0.57142859697341919
vt 0.57999998331069946 0.71428573131561279
vt 0.57999998331069946 0.8571428656578064
vt 0.57999998331069946 1
vt 0.72285711765289307 0
vt 0.72285711765289307 0.1428571492433548
vt 0.72285711765289307 0.28571429848670959
vt 0.72285711765289307 0.4285714328289032
vt 0.72285711765289307 0.57142859697341919
vt 0.72285711765289307 0.71428573131561279
vt 0.72285711765289307 0.8571428656578064
vt 0.72285711765289307 1
vt 0.86571431159973145 0
vt 0.86571431159973145 0.1428571492433548
vt 0.86571431159973145 0.28571429848670959
vt 0.86571431159973145 0.4285714328289032
vt 0.86571431159973145 0.57142859697341919
vt 0.86571431159973145 0.71428573131561279
vt 0.86571431159973145 0.8571428656578064
vt 0.86571431159973145 1
vt 1 0
vt 1 0.1428571492433548
vt 1 0.28571429848670959
vt 1 0.4285714328289032
vt 1 0.57142859697341919
vt 1 0.71428573131561279
vt 1 0.8571428656578064
vt 1 1
vn 0 1 0
vn 0 0.92896300554275513 0.37017259001731873
vn 0 0.51470643281936646 0.85736650228500366
vn 0 0.91663312911987305 0.39972957968711853
vn 0 1 0
vn 0 1 0
vn 0 1 0
vn 0 1 0
vn 0 1 0
vn -0.19052456319332123 0.98104870319366455 -0.035267308354377747
vn 0.21838919818401337 0.92870408296585083 -0.29969134926795959
vn 0.0059986971318721771 0.99986189603805542 -0.015496628358960152
vn -0.0036470997147262096 0.96433073282241821 0.26467522978782654
vn -0.17006000876426697 0.98203527927398682 0.081769667565822601
vn 0.12102902680635452 0.99134677648544312 0.050828542560338974
vn 0 1 0
vn 0 1 0
vn -0.11322643607854843 0.986858069896698 -0.11528614163398743
vn 0.048103146255016327 0.96277618408203125 0.26598510146141052
vn -0.17721536755561829 0.98014676570892334 0.088921241462230682
vn -0.00040527485543861985 0.99956732988357544 0.029411373659968376
vn 0.20757365226745605 0.97683387994766235 -0.052046075463294983
vn 0.030848177149891853 0.97774749994277954 -0.20750482380390167
vn 0 1 0
vn 0 1 0
vn -0.28632465004920959 0.95800703763961792 -0.015513432212173939
vn 0.00096087262500077486 0.99765408039093018 -0.068449661135673523
vn 0.16865241527557373 0.98282057046890259 -0.074967652559280396
vn 0.003167630871757865 0.97321397066116333 -0.22987949848175049
vn 0.046210672706365585 0.99877655506134033 0.017604291439056396
vn 0.036018282175064087 0.96519714593887329 0.25903111696243286
vn 0 1 0
vn 0 1 0
vn -0.1105385422706604 0.96377241611480713 0.24274256825447083
vn 0.098023593425750732 0.98033565282821655 -0.1712699830532074
vn 0.047232124954462051 0.99543583393096924 -0.082925371825695038
vn 0.00092910713283345103 0.99772381782531738 -0.067426629364490509
vn -0.32221147418022156 0.94576340913772583 0.041368909180164337
vn 0.16890548169612885 0.96415829658508301 0.20462082326412201
vn 0 1 0
vn 0 1 0
vn -0.15978851914405823 0.98502326011657715 -0.064782440662384033
vn 0.31033235788345337 0.95046031475067139 -0.01785980723798275
vn -0.082535900175571442 0.99369937181472778 0.075824625790119171
vn -0.0040225749835371971 0.95643305778503418 0.29192402958869934
vn -0.2420116513967514 0.97027325630187988 -0.00036102609010413289
vn 0.16148011386394501 0.95314836502075195 -0.25579756498336792
vn 0 1 0
vn 0 1 0
vn -0.029608059674501419 0.96891272068023682 -0.24562464654445648
vn 0.068755023181438446 0.99502772092819214 -0.072059258818626404
vn -0.22612191736698151 0.97269570827484131 -0.052268479019403458
vn 0.0028946255333721638 0.97767293453216553 -0.21011248230934143
vn 0.17371533811092377 0.9783967137336731 -0.11208406090736389
vn 0.030845165252685547 0.97761273384094238 -0.20813915133476257
vn 0 1 0
vn 0 1 0
vn 0 1 0
vn 0 1 0
vn 0 1 0
vn 0 1 0
vn 0 1 0
vn 0 1 0
vn 0 1 0

usemtl desert0
f 10/10/10 9/9/9 1/1/1 2/2/2
f 11/11/11 10/10/10 2/2/2 3/3/3
f 12/12/12 11/11/11 3/3/3 4/4/4
f 13/13/13 12/12/12 4/4/4 5/5/5
f 14/14/14 13/13/13 5/5/5 6/6/6
f 15/15/15 14/14/14 6/6/6 7/7/7
f 16/16/16 15/15/15 7/7/7 8/8/8
f 18/18/18 17/17/17 9/9/9 10/10/10
f 19/19/19 18/18/18 10/10/10 11/11/11
f 20/20/20 19/19/19 11/11/11 12/12/12
f 21/21/21 20/20/20 12/12/12 13/13/13
f 22/22/22 21/21/21 13/13/13 14/14/14
f 23/23/23 22/22/22 14/14/14 15/15/15
f 24/24/24 23/23/23 15/15/15 16/16/16
f 26/26/26 25/25/25 17/17/17 18/18/18
f 27/27/27 26/26/26 18/18/18 19/19/19
f 28/28/28 27/27/27 19/19/19 20/20/20
f 29/29/29 28/28/28 20/20/20 21/21/21
f 30/30/30 29/29/29 21/21/21 22/22/22
f 31/31/31 30/30/30 22/22/22 23/23/23
f 32/32/32 31/31/31 23/23/23 24/24/24
f 34/34/34 33/33/33 25/25/25 26/26/26
f 35/35/35 34/34/34 26/26/26 27/27/27
f 36/36/36 35/35/35 27/27/27 28/28/28
f 37/37/37 36/36/36 28/28/28 29/29/29
f 38/38/38 37/37/37 29/29/29 30/30/30
f 39/39/39 38/38/38 30/30/30 31/31/31
f 40/40/40 39/39/39 31/31/31 32/32/32
f 42/42/42 41/41/41 33/33/33 34/34/34
f 43/43/43 42/42/42 34/34/34 35/35/35
f 44/44/44 43/43/43 35/35/35 36/36/36
f 45/45/45 44/44/44 36/36/36 37/37/37
f 46/46/46 45/45/45 37/37/37 38/38/38
f 47/47/47 46/46/46 38/38/38 39/39/39
f 48/48/48 47/47/47 39/39/39 40/40/40
f 50/50/50 49/49/49 41/41/41 42/42/42
f 51/51/51 50/50/50 42/42/42 43/43/43
f 52/52/52 51/51/51 43/43/43 44/44/44
f 53/53/53 52/52/52 44/44/44 45/45/45
f 54/54/54 53/53/53 45/45/45 46/46/46
f 55/55/55 54/54/54 46/46/46 47/47/47
f 56/56/56 55/55/55 47/47/47 48/48/48
f 58/58/58 57/57/57 49/49/49 50/50/50
f 59/59/59 58/58/58 50/50/50 51/51/51
f 60/60/60 59/59/59 51/51/51 52/52/52
f 61/61/61 60/60/60 52/52/52 53/53/53
f 62/62/62 61/61/61 53/53/53 54/54/54
f 63/63/63 62/62/62 54/54/54 55/55/55
f 64/64/64 63/63/63 55/55/55 56/56/56
